<svg version="1.1" id="Layer_1" xmlns="http://www.w3.org/2000/svg" x="0px" y="0px"
     width="100%" viewBox="0 0 1024 1024" enable-background="new 0 0 1024 1024" xml:space="preserve">
<path fill="#000000" opacity="1.000000" stroke="none"
	d="
M477.203369,543.000000
	C477.203064,569.995789 477.079987,596.492615 477.305176,622.986450
	C477.348816,628.123230 475.664795,629.426941 470.699097,629.422119
	C350.718109,629.305176 230.736969,629.312012 110.755997,629.440063
	C105.865097,629.445251 104.577278,627.874207 104.585320,623.156738
	C104.709808,550.168396 104.709984,477.179779 104.589600,404.191498
	C104.581833,399.483551 105.883133,397.841614 110.769882,397.846405
	C230.750885,397.963470 350.732025,397.939819 470.713135,397.958038
	C476.807678,397.958954 477.202728,398.374878 477.204315,404.522522
	C477.216187,450.515015 477.205627,496.507507 477.203369,543.000000
M291.369843,426.172852
	C269.021637,414.902191 245.881638,413.274445 222.787216,422.685181
	C189.309601,436.326904 187.526642,475.281860 204.296616,494.073395
	C212.277924,503.016754 222.664856,508.249939 233.619583,512.536133
	C246.477936,517.567200 260.136597,520.401611 272.479523,526.861938
	C290.312042,536.195557 295.703796,558.589966 283.830109,574.990173
	C275.779297,586.110107 263.871429,589.570740 251.022568,590.191833
	C233.344803,591.046265 217.493835,585.602295 203.771469,574.465027
	C200.357925,571.694519 198.158981,571.837158 195.622940,575.206360
	C193.823959,577.596252 191.889023,579.935730 189.714752,581.978333
	C186.926590,584.597656 187.401001,586.333069 190.144379,588.781128
	C214.314606,610.349854 257.767792,615.846985 286.403015,600.656067
	C303.632141,591.516052 312.468719,576.791199 313.581390,557.565613
	C314.770599,537.017517 307.118835,520.876038 288.728394,510.490417
	C279.965820,505.541931 270.562958,502.242676 261.015900,499.260223
	C250.519333,495.981171 240.032059,492.665253 230.514816,486.961945
	C220.984604,481.250824 216.858841,472.776672 217.660187,461.768219
	C218.389740,451.746277 223.261383,444.489685 232.266556,440.141083
	C243.094101,434.912476 254.403763,434.829498 265.944305,437.255737
	C276.771484,439.532043 286.011841,445.038971 295.128510,451.502777
	C299.295776,448.177399 302.285614,443.961884 305.637909,440.103912
	C307.299652,438.191406 306.109375,436.803375 304.634888,435.463318
	C300.788666,431.968048 296.462646,429.159912 291.369843,426.172852
M353.981750,562.500000
	C353.978943,574.832947 354.144104,587.169312 353.888000,599.497009
	C353.789948,604.217285 355.221313,605.838440 360.114227,605.802612
	C387.612366,605.601074 415.112854,605.716309 442.612518,605.723816
	C454.687408,605.727112 454.474396,605.722595 454.757599,593.578247
	C454.868591,588.820251 453.540955,587.247742 448.648346,587.301514
	C426.984528,587.539368 405.316650,587.411438 383.650238,587.408325
	C376.710083,587.407288 376.683197,587.396667 376.677460,580.660828
	C376.662445,562.994385 376.667664,545.327881 376.676270,527.661438
	C376.679840,520.338196 376.693542,520.152039 384.225983,520.167725
	C398.720673,520.197998 413.214508,519.865967 427.712341,520.496765
	C440.088348,521.035278 440.020569,520.666260 440.192352,508.424530
	C440.265411,503.216736 438.294342,501.932373 433.443970,502.000763
	C416.780792,502.235779 400.112305,502.107208 383.445862,502.098358
	C376.710327,502.094788 376.681976,502.072693 376.675964,495.533691
	C376.660767,479.033875 376.669098,462.534088 376.677216,446.034271
	C376.680817,438.676147 376.690887,438.657318 383.990875,438.654022
	C404.323975,438.644806 424.657043,438.655334 444.990143,438.650238
	C447.298737,438.649658 449.990723,439.105316 450.479523,435.823120
	C451.208740,430.926422 451.725769,425.998108 452.314819,421.231079
	C450.108826,419.825989 448.056122,420.321136 446.108368,420.318634
	C417.942078,420.282410 389.775726,420.288055 361.609406,420.288696
	C354.017517,420.288849 353.978546,420.296509 353.976898,428.001648
	C353.967346,472.501099 353.977722,517.000549 353.981750,562.500000
z"/>
<path fill="#000000" opacity="1.000000" stroke="none"
	d="
M669.084351,565.000000
	C669.091614,522.360840 669.084595,480.221680 669.126770,438.082550
	C669.131470,433.424622 669.461914,428.767792 669.550842,424.108765
	C669.588989,422.109375 670.320557,420.856262 672.437805,420.905609
	C695.660339,421.446838 719.152405,418.247437 741.962952,424.827484
	C767.625183,432.230133 775.230164,450.525909 774.703308,472.216278
	C774.053772,498.957275 758.449951,511.419769 738.217285,517.381042
	C736.823730,517.791626 735.486328,518.392700 733.473145,519.149292
	C750.440063,548.143005 767.211731,576.803162 783.996765,605.486023
	C777.203552,608.896240 771.949280,607.443848 768.642883,601.713440
	C753.747803,575.898438 738.781189,550.124512 723.958740,524.267883
	C722.320190,521.409363 720.495300,520.544250 717.182068,520.653687
	C706.370056,521.010925 695.533508,521.302368 684.727966,520.442810
	C681.162170,520.159119 679.823242,520.993225 679.859314,525.009949
	C680.086243,550.324768 679.953430,575.642700 680.068237,600.958923
	C680.086304,604.955994 679.213440,607.183411 674.551758,607.099548
	C670.435852,607.025513 668.969849,605.555969 669.026672,601.475891
	C669.193665,589.486023 669.085205,577.492249 669.084351,565.000000
M680.005676,466.500000
	C679.999695,479.499115 680.002563,492.498199 679.980652,505.497314
	C679.975830,508.337708 680.045471,510.930420 684.048584,510.792908
	C698.851807,510.284454 713.727295,511.933411 728.462585,509.643188
	C739.764893,507.886566 750.229553,504.075745 757.049438,494.138824
	C773.938843,469.529877 761.129822,438.041901 731.980164,432.310547
	C715.977783,429.164124 699.768250,430.673828 683.640869,430.342468
	C680.227356,430.272308 680.005920,432.491486 680.007324,435.002136
	C680.013184,445.168091 680.007629,455.334045 680.005676,466.500000
z"/>
<path fill="#000000" opacity="1.000000" stroke="none"
	d="
M586.902100,475.290314
	C601.289795,517.207336 615.533386,558.756165 629.764221,600.309326
	C630.348022,602.013916 630.812439,603.759460 631.312927,605.420898
	C624.614563,608.841736 621.094666,607.552856 618.934082,601.099304
	C614.126526,586.739319 609.265747,572.395996 604.627197,557.981384
	C603.544617,554.617371 601.978760,553.233154 598.274963,553.257263
	C573.955200,553.415955 549.633423,553.422424 525.313782,553.253540
	C521.587341,553.227661 520.062134,554.615784 518.972717,557.968994
	C514.294128,572.369690 509.379089,586.693665 504.544006,601.043518
	C502.399353,607.408447 500.193970,608.354492 492.553314,605.614319
	C495.029755,598.148438 497.450195,590.620422 500.019196,583.143433
	C517.863281,531.209106 535.744080,479.287384 553.595398,427.355530
	C555.685974,421.273956 560.568726,418.936859 566.668579,421.103882
	C568.967773,421.920715 569.278809,423.987213 569.909973,425.816895
	C575.552673,442.176086 581.147034,458.551910 586.902100,475.290314
M533.543274,514.895996
	C530.446289,524.133850 527.349243,533.371704 524.035156,543.257080
	C549.454468,543.257080 573.982361,543.257080 599.448181,543.257080
	C587.019165,506.028687 574.704346,469.142426 562.389587,432.256195
	C562.036133,432.295197 561.682678,432.334198 561.329224,432.373199
	C552.163208,459.635620 542.997253,486.898041 533.543274,514.895996
z"/>
<path fill="#000000" opacity="1.000000" stroke="none"
	d="
M862.097534,601.709045
	C862.498108,606.925293 859.406921,606.980225 855.944031,607.012329
	C851.813416,607.050598 851.580383,604.590759 851.583191,601.433289
	C851.630981,547.777649 851.636719,494.122009 851.620361,440.466370
	C851.617188,430.017334 852.456116,431.099335 842.203979,431.076996
	C828.540222,431.047211 814.876221,431.038605 801.212463,431.065735
	C797.989136,431.072144 795.212830,430.981598 795.243286,426.487488
	C795.271729,422.296722 796.732361,420.722473 801.151917,420.739166
	C838.643677,420.880676 876.136169,420.783722 913.628418,420.840912
	C915.822876,420.844238 919.005981,419.664948 919.204712,423.816498
	C919.432800,428.583466 917.619873,431.000244 913.232361,431.026123
	C898.569275,431.112640 883.905396,431.061981 869.241821,431.072571
	C862.122131,431.077728 862.099121,431.086548 862.098572,438.276611
	C862.094482,492.598785 862.100220,546.920959 862.097534,601.709045
z"/>
</svg>
